<svg width="222" height="36" viewBox="0 0 222 36" fill="none" xmlns="http://www.w3.org/2000/svg">
<rect width="111" height="36" fill="white"/>
<path d="M34.1675 23.126C33.4488 23.126 32.7675 23.0327 32.1235 22.846C31.4888 22.65 30.9708 22.3887 30.5695 22.062C30.3548 21.9033 30.2475 21.6793 30.2475 21.39C30.2475 21.194 30.3035 21.026 30.4155 20.886C30.5368 20.7367 30.6768 20.662 30.8355 20.662C31.0035 20.662 31.1948 20.7273 31.4095 20.858C31.8108 21.1473 32.2308 21.3573 32.6695 21.488C33.1082 21.6187 33.5935 21.684 34.1255 21.684C34.8068 21.684 35.3295 21.5673 35.6935 21.334C36.0575 21.0913 36.2395 20.7413 36.2395 20.284C36.2395 19.9293 36.0668 19.6587 35.7215 19.472C35.3855 19.276 34.8208 19.0893 34.0275 18.912C33.2062 18.7347 32.5388 18.5293 32.0255 18.296C31.5122 18.0627 31.1248 17.764 30.8635 17.4C30.6022 17.036 30.4715 16.574 30.4715 16.014C30.4715 15.4353 30.6348 14.9173 30.9615 14.46C31.2882 14.0027 31.7408 13.648 32.3195 13.396C32.9075 13.1347 33.5655 13.004 34.2935 13.004C35.6282 13.004 36.7155 13.3587 37.5555 14.068C37.6768 14.1707 37.7608 14.2733 37.8075 14.376C37.8635 14.4693 37.8915 14.5907 37.8915 14.74C37.8915 14.936 37.8308 15.1087 37.7095 15.258C37.5975 15.398 37.4622 15.468 37.3035 15.468C37.2102 15.468 37.1215 15.454 37.0375 15.426C36.9628 15.398 36.8602 15.3467 36.7295 15.272C36.3468 14.992 35.9735 14.7867 35.6095 14.656C35.2548 14.516 34.8162 14.446 34.2935 14.446C33.6588 14.446 33.1548 14.5767 32.7815 14.838C32.4175 15.09 32.2355 15.4447 32.2355 15.902C32.2355 16.2847 32.3988 16.5787 32.7255 16.784C33.0522 16.9893 33.6075 17.1807 34.3915 17.358C35.2222 17.5447 35.8942 17.7547 36.4075 17.988C36.9302 18.212 37.3268 18.5013 37.5975 18.856C37.8775 19.2107 38.0175 19.654 38.0175 20.186C38.0175 20.7647 37.8542 21.278 37.5275 21.726C37.2102 22.1647 36.7575 22.51 36.1695 22.762C35.5908 23.0047 34.9235 23.126 34.1675 23.126ZM40.3932 23.084C40.1412 23.084 39.9312 23.014 39.7632 22.874C39.6046 22.7247 39.5252 22.5147 39.5252 22.244V16.84C39.5252 16.5693 39.6046 16.364 39.7632 16.224C39.9312 16.084 40.1412 16.014 40.3932 16.014C40.6452 16.014 40.8552 16.084 41.0232 16.224C41.1912 16.364 41.2752 16.5693 41.2752 16.84V22.244C41.2752 22.5147 41.1912 22.7247 41.0232 22.874C40.8552 23.014 40.6452 23.084 40.3932 23.084ZM40.3932 14.768C40.0759 14.768 39.8239 14.684 39.6372 14.516C39.4506 14.3387 39.3572 14.11 39.3572 13.83C39.3572 13.55 39.4506 13.326 39.6372 13.158C39.8239 12.99 40.0759 12.906 40.3932 12.906C40.7012 12.906 40.9486 12.99 41.1352 13.158C41.3312 13.326 41.4292 13.55 41.4292 13.83C41.4292 14.11 41.3359 14.3387 41.1492 14.516C40.9626 14.684 40.7106 14.768 40.3932 14.768ZM48.8759 16.014C49.1373 16.014 49.3473 16.0887 49.5059 16.238C49.6646 16.3873 49.7439 16.588 49.7439 16.84V22.37C49.7439 23.4433 49.4453 24.2553 48.8479 24.806C48.2506 25.3567 47.3686 25.632 46.2019 25.632C45.1846 25.632 44.3353 25.4407 43.6539 25.058C43.3086 24.8527 43.1359 24.6053 43.1359 24.316C43.1359 24.1107 43.1826 23.9473 43.2759 23.826C43.3786 23.7047 43.5093 23.644 43.6679 23.644C43.7519 23.644 43.8546 23.6627 43.9759 23.7C44.0973 23.7467 44.2233 23.798 44.3539 23.854C44.6899 23.994 44.9886 24.1013 45.2499 24.176C45.5206 24.2507 45.8286 24.288 46.1739 24.288C47.3966 24.288 48.0079 23.6907 48.0079 22.496V21.6C47.8026 21.9827 47.5039 22.2813 47.1119 22.496C46.7199 22.7013 46.2719 22.804 45.7679 22.804C45.1706 22.804 44.6386 22.664 44.1719 22.384C43.7146 22.0947 43.3553 21.6933 43.0939 21.18C42.8326 20.6667 42.7019 20.074 42.7019 19.402C42.7019 18.73 42.8279 18.1373 43.0799 17.624C43.3413 17.1013 43.7053 16.7 44.1719 16.42C44.6386 16.1307 45.1706 15.986 45.7679 15.986C46.2719 15.986 46.7199 16.0933 47.1119 16.308C47.5039 16.5133 47.8026 16.8073 48.0079 17.19V16.826C48.0079 16.5833 48.0873 16.3873 48.2459 16.238C48.4046 16.0887 48.6146 16.014 48.8759 16.014ZM46.2299 21.446C46.7899 21.446 47.2239 21.264 47.5319 20.9C47.8493 20.536 48.0079 20.0367 48.0079 19.402C48.0079 18.758 47.8493 18.254 47.5319 17.89C47.2239 17.526 46.7899 17.344 46.2299 17.344C45.6793 17.344 45.2453 17.526 44.9279 17.89C44.6106 18.254 44.4519 18.758 44.4519 19.402C44.4519 20.0367 44.6106 20.536 44.9279 20.9C45.2453 21.264 45.6793 21.446 46.2299 21.446ZM55.5325 15.986C56.3538 15.986 56.9652 16.2193 57.3665 16.686C57.7678 17.1527 57.9685 17.8573 57.9685 18.8V22.244C57.9685 22.5053 57.8892 22.7107 57.7305 22.86C57.5812 23.0093 57.3712 23.084 57.1005 23.084C56.8298 23.084 56.6152 23.0093 56.4565 22.86C56.2978 22.7107 56.2185 22.5053 56.2185 22.244V18.898C56.2185 18.366 56.1158 17.9787 55.9105 17.736C55.7145 17.4933 55.4018 17.372 54.9725 17.372C54.4685 17.372 54.0625 17.5307 53.7545 17.848C53.4558 18.1653 53.3065 18.59 53.3065 19.122V22.244C53.3065 22.5053 53.2272 22.7107 53.0685 22.86C52.9098 23.0093 52.6952 23.084 52.4245 23.084C52.1538 23.084 51.9392 23.0093 51.7805 22.86C51.6312 22.7107 51.5565 22.5053 51.5565 22.244V16.826C51.5565 16.5833 51.6358 16.3873 51.7945 16.238C51.9532 16.0887 52.1678 16.014 52.4385 16.014C52.6812 16.014 52.8772 16.0887 53.0265 16.238C53.1852 16.378 53.2645 16.5647 53.2645 16.798V17.176C53.4978 16.7933 53.8105 16.4993 54.2025 16.294C54.5945 16.0887 55.0378 15.986 55.5325 15.986ZM67.7747 23.126C66.4214 23.126 65.3947 22.776 64.6947 22.076C63.9947 21.376 63.6447 20.354 63.6447 19.01V13.956C63.6447 13.6853 63.7241 13.4707 63.8827 13.312C64.0414 13.144 64.2561 13.06 64.5267 13.06C64.7974 13.06 65.0121 13.144 65.1707 13.312C65.3294 13.4707 65.4087 13.6853 65.4087 13.956V19.108C65.4087 19.9573 65.6094 20.6013 66.0107 21.04C66.4121 21.4693 67.0001 21.684 67.7747 21.684C68.5401 21.684 69.1234 21.4647 69.5247 21.026C69.9261 20.5873 70.1267 19.948 70.1267 19.108V13.956C70.1267 13.6853 70.2061 13.4707 70.3647 13.312C70.5234 13.144 70.7381 13.06 71.0087 13.06C71.2794 13.06 71.4941 13.144 71.6527 13.312C71.8114 13.4707 71.8907 13.6853 71.8907 13.956V19.01C71.8907 20.3447 71.5407 21.3667 70.8407 22.076C70.1407 22.776 69.1187 23.126 67.7747 23.126ZM77.7483 15.986C78.3363 15.986 78.859 16.1353 79.3163 16.434C79.783 16.7327 80.1423 17.1573 80.3943 17.708C80.6556 18.2493 80.7863 18.8747 80.7863 19.584C80.7863 20.2933 80.6556 20.914 80.3943 21.446C80.1423 21.978 79.7876 22.3887 79.3303 22.678C78.873 22.9673 78.3456 23.112 77.7483 23.112C77.263 23.112 76.829 23.0093 76.4463 22.804C76.0636 22.5987 75.7696 22.314 75.5643 21.95V24.806C75.5643 25.0487 75.485 25.24 75.3263 25.38C75.1676 25.52 74.9576 25.59 74.6963 25.59C74.435 25.59 74.2203 25.5153 74.0523 25.366C73.8936 25.2167 73.8143 25.0207 73.8143 24.778V16.84C73.8143 16.588 73.889 16.3873 74.0383 16.238C74.197 16.0887 74.407 16.014 74.6683 16.014C74.9296 16.014 75.1396 16.0887 75.2983 16.238C75.457 16.3873 75.5363 16.588 75.5363 16.84V17.19C75.7416 16.8073 76.0356 16.5133 76.4183 16.308C76.8103 16.0933 77.2536 15.986 77.7483 15.986ZM77.2863 21.754C77.837 21.754 78.2663 21.5673 78.5743 21.194C78.8823 20.8113 79.0363 20.2747 79.0363 19.584C79.0363 18.8747 78.8823 18.324 78.5743 17.932C78.2663 17.54 77.837 17.344 77.2863 17.344C76.7263 17.344 76.2923 17.5353 75.9843 17.918C75.6856 18.3007 75.5363 18.8467 75.5363 19.556C75.5363 20.256 75.6856 20.7973 75.9843 21.18C76.2923 21.5627 76.7263 21.754 77.2863 21.754Z" fill="#156963"/>
<rect width="111" height="36" transform="translate(111)" fill="#156963"/>
<path d="M148.442 23.126C147.723 23.126 147.042 23.0327 146.398 22.846C145.763 22.65 145.245 22.3887 144.844 22.062C144.629 21.9033 144.522 21.6793 144.522 21.39C144.522 21.194 144.578 21.026 144.69 20.886C144.811 20.7367 144.951 20.662 145.11 20.662C145.278 20.662 145.469 20.7273 145.684 20.858C146.085 21.1473 146.505 21.3573 146.944 21.488C147.383 21.6187 147.868 21.684 148.4 21.684C149.081 21.684 149.604 21.5673 149.968 21.334C150.332 21.0913 150.514 20.7413 150.514 20.284C150.514 19.9293 150.341 19.6587 149.996 19.472C149.66 19.276 149.095 19.0893 148.302 18.912C147.481 18.7347 146.813 18.5293 146.3 18.296C145.787 18.0627 145.399 17.764 145.138 17.4C144.877 17.036 144.746 16.574 144.746 16.014C144.746 15.4353 144.909 14.9173 145.236 14.46C145.563 14.0027 146.015 13.648 146.594 13.396C147.182 13.1347 147.84 13.004 148.568 13.004C149.903 13.004 150.99 13.3587 151.83 14.068C151.951 14.1707 152.035 14.2733 152.082 14.376C152.138 14.4693 152.166 14.5907 152.166 14.74C152.166 14.936 152.105 15.1087 151.984 15.258C151.872 15.398 151.737 15.468 151.578 15.468C151.485 15.468 151.396 15.454 151.312 15.426C151.237 15.398 151.135 15.3467 151.004 15.272C150.621 14.992 150.248 14.7867 149.884 14.656C149.529 14.516 149.091 14.446 148.568 14.446C147.933 14.446 147.429 14.5767 147.056 14.838C146.692 15.09 146.51 15.4447 146.51 15.902C146.51 16.2847 146.673 16.5787 147 16.784C147.327 16.9893 147.882 17.1807 148.666 17.358C149.497 17.5447 150.169 17.7547 150.682 17.988C151.205 18.212 151.601 18.5013 151.872 18.856C152.152 19.2107 152.292 19.654 152.292 20.186C152.292 20.7647 152.129 21.278 151.802 21.726C151.485 22.1647 151.032 22.51 150.444 22.762C149.865 23.0047 149.198 23.126 148.442 23.126ZM154.668 23.084C154.416 23.084 154.206 23.014 154.038 22.874C153.879 22.7247 153.8 22.5147 153.8 22.244V16.84C153.8 16.5693 153.879 16.364 154.038 16.224C154.206 16.084 154.416 16.014 154.668 16.014C154.92 16.014 155.13 16.084 155.298 16.224C155.466 16.364 155.55 16.5693 155.55 16.84V22.244C155.55 22.5147 155.466 22.7247 155.298 22.874C155.13 23.014 154.92 23.084 154.668 23.084ZM154.668 14.768C154.35 14.768 154.098 14.684 153.912 14.516C153.725 14.3387 153.632 14.11 153.632 13.83C153.632 13.55 153.725 13.326 153.912 13.158C154.098 12.99 154.35 12.906 154.668 12.906C154.976 12.906 155.223 12.99 155.41 13.158C155.606 13.326 155.704 13.55 155.704 13.83C155.704 14.11 155.61 14.3387 155.424 14.516C155.237 14.684 154.985 14.768 154.668 14.768ZM163.15 16.014C163.412 16.014 163.622 16.0887 163.78 16.238C163.939 16.3873 164.018 16.588 164.018 16.84V22.37C164.018 23.4433 163.72 24.2553 163.122 24.806C162.525 25.3567 161.643 25.632 160.476 25.632C159.459 25.632 158.61 25.4407 157.928 25.058C157.583 24.8527 157.41 24.6053 157.41 24.316C157.41 24.1107 157.457 23.9473 157.55 23.826C157.653 23.7047 157.784 23.644 157.942 23.644C158.026 23.644 158.129 23.6627 158.25 23.7C158.372 23.7467 158.498 23.798 158.628 23.854C158.964 23.994 159.263 24.1013 159.524 24.176C159.795 24.2507 160.103 24.288 160.448 24.288C161.671 24.288 162.282 23.6907 162.282 22.496V21.6C162.077 21.9827 161.778 22.2813 161.386 22.496C160.994 22.7013 160.546 22.804 160.042 22.804C159.445 22.804 158.913 22.664 158.446 22.384C157.989 22.0947 157.63 21.6933 157.368 21.18C157.107 20.6667 156.976 20.074 156.976 19.402C156.976 18.73 157.102 18.1373 157.354 17.624C157.616 17.1013 157.98 16.7 158.446 16.42C158.913 16.1307 159.445 15.986 160.042 15.986C160.546 15.986 160.994 16.0933 161.386 16.308C161.778 16.5133 162.077 16.8073 162.282 17.19V16.826C162.282 16.5833 162.362 16.3873 162.52 16.238C162.679 16.0887 162.889 16.014 163.15 16.014ZM160.504 21.446C161.064 21.446 161.498 21.264 161.806 20.9C162.124 20.536 162.282 20.0367 162.282 19.402C162.282 18.758 162.124 18.254 161.806 17.89C161.498 17.526 161.064 17.344 160.504 17.344C159.954 17.344 159.52 17.526 159.202 17.89C158.885 18.254 158.726 18.758 158.726 19.402C158.726 20.0367 158.885 20.536 159.202 20.9C159.52 21.264 159.954 21.446 160.504 21.446ZM169.807 15.986C170.628 15.986 171.24 16.2193 171.641 16.686C172.042 17.1527 172.243 17.8573 172.243 18.8V22.244C172.243 22.5053 172.164 22.7107 172.005 22.86C171.856 23.0093 171.646 23.084 171.375 23.084C171.104 23.084 170.89 23.0093 170.731 22.86C170.572 22.7107 170.493 22.5053 170.493 22.244V18.898C170.493 18.366 170.39 17.9787 170.185 17.736C169.989 17.4933 169.676 17.372 169.247 17.372C168.743 17.372 168.337 17.5307 168.029 17.848C167.73 18.1653 167.581 18.59 167.581 19.122V22.244C167.581 22.5053 167.502 22.7107 167.343 22.86C167.184 23.0093 166.97 23.084 166.699 23.084C166.428 23.084 166.214 23.0093 166.055 22.86C165.906 22.7107 165.831 22.5053 165.831 22.244V16.826C165.831 16.5833 165.91 16.3873 166.069 16.238C166.228 16.0887 166.442 16.014 166.713 16.014C166.956 16.014 167.152 16.0887 167.301 16.238C167.46 16.378 167.539 16.5647 167.539 16.798V17.176C167.772 16.7933 168.085 16.4993 168.477 16.294C168.869 16.0887 169.312 15.986 169.807 15.986ZM178.871 23.084C178.6 23.084 178.381 23 178.213 22.832C178.054 22.664 177.975 22.4447 177.975 22.174V13.956C177.975 13.6853 178.054 13.4707 178.213 13.312C178.381 13.144 178.6 13.06 178.871 13.06C179.151 13.06 179.37 13.144 179.529 13.312C179.697 13.4707 179.781 13.6853 179.781 13.956V22.174C179.781 22.4447 179.697 22.664 179.529 22.832C179.37 23 179.151 23.084 178.871 23.084ZM185.735 15.986C186.556 15.986 187.167 16.2193 187.569 16.686C187.97 17.1527 188.171 17.8573 188.171 18.8V22.244C188.171 22.5053 188.091 22.7107 187.933 22.86C187.783 23.0093 187.573 23.084 187.303 23.084C187.032 23.084 186.817 23.0093 186.659 22.86C186.5 22.7107 186.421 22.5053 186.421 22.244V18.898C186.421 18.366 186.318 17.9787 186.113 17.736C185.917 17.4933 185.604 17.372 185.175 17.372C184.671 17.372 184.265 17.5307 183.957 17.848C183.658 18.1653 183.509 18.59 183.509 19.122V22.244C183.509 22.5053 183.429 22.7107 183.271 22.86C183.112 23.0093 182.897 23.084 182.627 23.084C182.356 23.084 182.141 23.0093 181.983 22.86C181.833 22.7107 181.759 22.5053 181.759 22.244V16.826C181.759 16.5833 181.838 16.3873 181.997 16.238C182.155 16.0887 182.37 16.014 182.641 16.014C182.883 16.014 183.079 16.0887 183.229 16.238C183.387 16.378 183.467 16.5647 183.467 16.798V17.176C183.7 16.7933 184.013 16.4993 184.405 16.294C184.797 16.0887 185.24 15.986 185.735 15.986Z" fill="white"/>
</svg>
