<svg width="152" height="40" viewBox="0 0 152 40" fill="none" xmlns="http://www.w3.org/2000/svg">
<rect x="0.5" y="0.5" width="151" height="39" fill="#156963"/>
<rect x="0.5" y="0.5" width="151" height="39" stroke="#156963"/>
<path d="M50.5517 15.522C50.701 15.2047 50.9483 15.046 51.2937 15.046C51.527 15.046 51.737 15.1207 51.9237 15.27C52.1103 15.4193 52.2037 15.606 52.2037 15.83C52.2037 15.9327 52.1757 16.0493 52.1197 16.18L48.2417 24.524C48.1577 24.7013 48.027 24.8413 47.8497 24.944C47.6817 25.0373 47.4997 25.084 47.3037 25.084C47.1077 25.084 46.921 25.0373 46.7437 24.944C46.5757 24.8413 46.4497 24.7013 46.3657 24.524L42.5017 16.18C42.4457 16.0493 42.4177 15.9373 42.4177 15.844C42.4177 15.6107 42.511 15.4193 42.6977 15.27C42.8937 15.1207 43.113 15.046 43.3557 15.046C43.5143 15.046 43.659 15.088 43.7897 15.172C43.9297 15.2467 44.037 15.3633 44.1117 15.522L47.3317 22.676L50.5517 15.522ZM54.7204 25.084C54.4684 25.084 54.2584 25.014 54.0904 24.874C53.9317 24.7247 53.8524 24.5147 53.8524 24.244V18.84C53.8524 18.5693 53.9317 18.364 54.0904 18.224C54.2584 18.084 54.4684 18.014 54.7204 18.014C54.9724 18.014 55.1824 18.084 55.3504 18.224C55.5184 18.364 55.6024 18.5693 55.6024 18.84V24.244C55.6024 24.5147 55.5184 24.7247 55.3504 24.874C55.1824 25.014 54.9724 25.084 54.7204 25.084ZM54.7204 16.768C54.403 16.768 54.151 16.684 53.9644 16.516C53.7777 16.3387 53.6844 16.11 53.6844 15.83C53.6844 15.55 53.7777 15.326 53.9644 15.158C54.151 14.99 54.403 14.906 54.7204 14.906C55.0284 14.906 55.2757 14.99 55.4624 15.158C55.6584 15.326 55.7564 15.55 55.7564 15.83C55.7564 16.11 55.663 16.3387 55.4764 16.516C55.2897 16.684 55.0377 16.768 54.7204 16.768ZM59.8851 25.112C58.8677 25.112 58.0464 24.9113 57.4211 24.51C57.1224 24.3327 56.9731 24.0807 56.9731 23.754C56.9731 23.5673 57.0244 23.418 57.1271 23.306C57.2297 23.1847 57.3557 23.124 57.5051 23.124C57.6637 23.124 57.8831 23.1987 58.1631 23.348C58.4617 23.488 58.7324 23.5953 58.9751 23.67C59.2271 23.7447 59.5444 23.782 59.9271 23.782C60.3191 23.782 60.6224 23.7167 60.8371 23.586C61.0611 23.4553 61.1731 23.2733 61.1731 23.04C61.1731 22.8813 61.1264 22.7553 61.0331 22.662C60.9491 22.5687 60.7904 22.4847 60.5571 22.41C60.3331 22.326 59.9877 22.2327 59.5211 22.13C58.6904 21.962 58.0931 21.724 57.7291 21.416C57.3744 21.108 57.1971 20.6833 57.1971 20.142C57.1971 19.7313 57.3184 19.3627 57.5611 19.036C57.8037 18.7 58.1351 18.4433 58.5551 18.266C58.9844 18.0793 59.4697 17.986 60.0111 17.986C60.4031 17.986 60.7811 18.0373 61.1451 18.14C61.5091 18.2333 61.8357 18.3733 62.1251 18.56C62.4237 18.7467 62.5731 18.994 62.5731 19.302C62.5731 19.4887 62.5217 19.6473 62.4191 19.778C62.3164 19.8993 62.1904 19.96 62.0411 19.96C61.9384 19.96 61.8357 19.9413 61.7331 19.904C61.6397 19.8573 61.5184 19.792 61.3691 19.708C61.0984 19.568 60.8651 19.4653 60.6691 19.4C60.4731 19.3253 60.2304 19.288 59.9411 19.288C59.5957 19.288 59.3204 19.358 59.1151 19.498C58.9191 19.638 58.8211 19.8293 58.8211 20.072C58.8211 20.3053 58.9237 20.4827 59.1291 20.604C59.3344 20.7253 59.7311 20.8467 60.3191 20.968C60.9444 21.0987 61.4344 21.248 61.7891 21.416C62.1437 21.584 62.3957 21.794 62.5451 22.046C62.7037 22.298 62.7831 22.62 62.7831 23.012C62.7831 23.6467 62.5171 24.1553 61.9851 24.538C61.4624 24.9207 60.7624 25.112 59.8851 25.112ZM65.07 25.084C64.818 25.084 64.608 25.014 64.44 24.874C64.2813 24.7247 64.202 24.5147 64.202 24.244V18.84C64.202 18.5693 64.2813 18.364 64.44 18.224C64.608 18.084 64.818 18.014 65.07 18.014C65.322 18.014 65.532 18.084 65.7 18.224C65.868 18.364 65.952 18.5693 65.952 18.84V24.244C65.952 24.5147 65.868 24.7247 65.7 24.874C65.532 25.014 65.322 25.084 65.07 25.084ZM65.07 16.768C64.7527 16.768 64.5007 16.684 64.314 16.516C64.1273 16.3387 64.034 16.11 64.034 15.83C64.034 15.55 64.1273 15.326 64.314 15.158C64.5007 14.99 64.7527 14.906 65.07 14.906C65.378 14.906 65.6253 14.99 65.812 15.158C66.008 15.326 66.106 15.55 66.106 15.83C66.106 16.11 66.0127 16.3387 65.826 16.516C65.6393 16.684 65.3873 16.768 65.07 16.768ZM71.6135 23.782C72.0801 23.81 72.3135 24.02 72.3135 24.412C72.3135 24.636 72.2201 24.8087 72.0335 24.93C71.8561 25.042 71.5995 25.0887 71.2635 25.07L70.8855 25.042C69.3175 24.93 68.5335 24.09 68.5335 22.522V19.47H67.8335C67.5815 19.47 67.3855 19.414 67.2455 19.302C67.1148 19.19 67.0495 19.0267 67.0495 18.812C67.0495 18.5973 67.1148 18.434 67.2455 18.322C67.3855 18.21 67.5815 18.154 67.8335 18.154H68.5335V16.866C68.5335 16.614 68.6128 16.4133 68.7715 16.264C68.9301 16.1147 69.1448 16.04 69.4155 16.04C69.6768 16.04 69.8868 16.1147 70.0455 16.264C70.2041 16.4133 70.2835 16.614 70.2835 16.866V18.154H71.4735C71.7255 18.154 71.9168 18.21 72.0475 18.322C72.1875 18.434 72.2575 18.5973 72.2575 18.812C72.2575 19.0267 72.1875 19.19 72.0475 19.302C71.9168 19.414 71.7255 19.47 71.4735 19.47H70.2835V22.648C70.2835 23.3387 70.6008 23.7073 71.2355 23.754L71.6135 23.782ZM80.5962 25.126C79.8775 25.126 79.1962 25.0327 78.5522 24.846C77.9175 24.65 77.3995 24.3887 76.9982 24.062C76.7835 23.9033 76.6762 23.6793 76.6762 23.39C76.6762 23.194 76.7322 23.026 76.8442 22.886C76.9655 22.7367 77.1055 22.662 77.2642 22.662C77.4322 22.662 77.6235 22.7273 77.8382 22.858C78.2395 23.1473 78.6595 23.3573 79.0982 23.488C79.5369 23.6187 80.0222 23.684 80.5542 23.684C81.2355 23.684 81.7582 23.5673 82.1222 23.334C82.4862 23.0913 82.6682 22.7413 82.6682 22.284C82.6682 21.9293 82.4955 21.6587 82.1502 21.472C81.8142 21.276 81.2495 21.0893 80.4562 20.912C79.6349 20.7347 78.9675 20.5293 78.4542 20.296C77.9409 20.0627 77.5535 19.764 77.2922 19.4C77.0309 19.036 76.9002 18.574 76.9002 18.014C76.9002 17.4353 77.0635 16.9173 77.3902 16.46C77.7169 16.0027 78.1695 15.648 78.7482 15.396C79.3362 15.1347 79.9942 15.004 80.7222 15.004C82.0569 15.004 83.1442 15.3587 83.9842 16.068C84.1055 16.1707 84.1895 16.2733 84.2362 16.376C84.2922 16.4693 84.3202 16.5907 84.3202 16.74C84.3202 16.936 84.2595 17.1087 84.1382 17.258C84.0262 17.398 83.8909 17.468 83.7322 17.468C83.6389 17.468 83.5502 17.454 83.4662 17.426C83.3915 17.398 83.2889 17.3467 83.1582 17.272C82.7755 16.992 82.4022 16.7867 82.0382 16.656C81.6835 16.516 81.2449 16.446 80.7222 16.446C80.0875 16.446 79.5835 16.5767 79.2102 16.838C78.8462 17.09 78.6642 17.4447 78.6642 17.902C78.6642 18.2847 78.8275 18.5787 79.1542 18.784C79.4809 18.9893 80.0362 19.1807 80.8202 19.358C81.6509 19.5447 82.3229 19.7547 82.8362 19.988C83.3589 20.212 83.7555 20.5013 84.0262 20.856C84.3062 21.2107 84.4462 21.654 84.4462 22.186C84.4462 22.7647 84.2829 23.278 83.9562 23.726C83.6389 24.1647 83.1862 24.51 82.5982 24.762C82.0195 25.0047 81.3522 25.126 80.5962 25.126ZM89.9579 17.986C91.5633 17.986 92.3659 18.924 92.3659 20.8V24.244C92.3659 24.5053 92.2866 24.7107 92.1279 24.86C91.9786 25.0093 91.7686 25.084 91.4979 25.084C91.2273 25.084 91.0126 25.0093 90.8539 24.86C90.6953 24.7107 90.6159 24.5053 90.6159 24.244V20.8C90.6159 20.3053 90.5133 19.946 90.3079 19.722C90.1119 19.4887 89.7993 19.372 89.3699 19.372C88.8659 19.372 88.4599 19.5307 88.1519 19.848C87.8533 20.1653 87.7039 20.59 87.7039 21.122V24.244C87.7039 24.5053 87.6246 24.7107 87.4659 24.86C87.3073 25.0093 87.0926 25.084 86.8219 25.084C86.5513 25.084 86.3366 25.0093 86.1779 24.86C86.0286 24.7107 85.9539 24.5053 85.9539 24.244V15.872C85.9539 15.6293 86.0333 15.4333 86.1919 15.284C86.3599 15.1347 86.5746 15.06 86.8359 15.06C87.0973 15.06 87.3073 15.13 87.4659 15.27C87.6246 15.41 87.7039 15.6013 87.7039 15.844V19.106C87.9373 18.742 88.2453 18.4667 88.6279 18.28C89.0199 18.084 89.4633 17.986 89.9579 17.986ZM97.2654 25.112C96.5654 25.112 95.9494 24.9673 95.4174 24.678C94.8947 24.3887 94.4887 23.9733 94.1994 23.432C93.9101 22.8907 93.7654 22.2607 93.7654 21.542C93.7654 20.8233 93.9101 20.198 94.1994 19.666C94.4887 19.1247 94.8947 18.7093 95.4174 18.42C95.9494 18.1307 96.5654 17.986 97.2654 17.986C97.9654 17.986 98.5767 18.1307 99.0994 18.42C99.6314 18.7093 100.037 19.1247 100.317 19.666C100.607 20.198 100.751 20.8233 100.751 21.542C100.751 22.2607 100.607 22.8907 100.317 23.432C100.037 23.9733 99.6314 24.3887 99.0994 24.678C98.5767 24.9673 97.9654 25.112 97.2654 25.112ZM97.2514 23.754C97.8207 23.754 98.2547 23.5673 98.5534 23.194C98.8521 22.8207 99.0014 22.27 99.0014 21.542C99.0014 20.8233 98.8521 20.2773 98.5534 19.904C98.2547 19.5213 97.8254 19.33 97.2654 19.33C96.7054 19.33 96.2714 19.5213 95.9634 19.904C95.6647 20.2773 95.5154 20.8233 95.5154 21.542C95.5154 22.27 95.6647 22.8207 95.9634 23.194C96.2621 23.5673 96.6914 23.754 97.2514 23.754ZM106.13 17.986C106.718 17.986 107.241 18.1353 107.698 18.434C108.165 18.7327 108.524 19.1573 108.776 19.708C109.037 20.2493 109.168 20.8747 109.168 21.584C109.168 22.2933 109.037 22.914 108.776 23.446C108.524 23.978 108.169 24.3887 107.712 24.678C107.255 24.9673 106.727 25.112 106.13 25.112C105.645 25.112 105.211 25.0093 104.828 24.804C104.445 24.5987 104.151 24.314 103.946 23.95V26.806C103.946 27.0487 103.867 27.24 103.708 27.38C103.549 27.52 103.339 27.59 103.078 27.59C102.817 27.59 102.602 27.5153 102.434 27.366C102.275 27.2167 102.196 27.0207 102.196 26.778V18.84C102.196 18.588 102.271 18.3873 102.42 18.238C102.579 18.0887 102.789 18.014 103.05 18.014C103.311 18.014 103.521 18.0887 103.68 18.238C103.839 18.3873 103.918 18.588 103.918 18.84V19.19C104.123 18.8073 104.417 18.5133 104.8 18.308C105.192 18.0933 105.635 17.986 106.13 17.986ZM105.668 23.754C106.219 23.754 106.648 23.5673 106.956 23.194C107.264 22.8113 107.418 22.2747 107.418 21.584C107.418 20.8747 107.264 20.324 106.956 19.932C106.648 19.54 106.219 19.344 105.668 19.344C105.108 19.344 104.674 19.5353 104.366 19.918C104.067 20.3007 103.918 20.8467 103.918 21.556C103.918 22.256 104.067 22.7973 104.366 23.18C104.674 23.5627 105.108 23.754 105.668 23.754Z" fill="#FAFEFE"/>
</svg>
